<?xml version='1.0' encoding='utf-8'?>
<!DOCTYPE svg PUBLIC '-//W3C//DTD SVG 1.1//EN' 'http://www.w3.org/Graphics/SVG/1.1/DTD/svg11.dtd'>
<svg version="1.1" xmlns="http://www.w3.org/2000/svg" viewBox="0 0 512 512" xmlns:xlink="http://www.w3.org/1999/xlink" enable-background="new 0 0 512 512">
  <g>
    <g>
      <path d="m449.7,134.8c-7.9-8.1-20.8-8.3-28.9-0.4-8.1,7.9-8.3,20.8-0.5,28.9 49.6,51.1 49.7,134.4 0,185.5-11,11.3-3.7,24.9 0.5,28.9 8.1,7.9 21,7.6 28.9-0.4 64.7-66.9 64.7-175.6 0-242.5z"/>
      <path d="m387.1,180.3c-7.9-8.1-20.8-8.3-28.9-0.4-8.1,7.8-8.3,20.8-0.5,28.9 25.3,26 24.7,67.9 0,94.5-10.6,11.4-3.7,24.9 0.5,28.9 8.1,7.9 21,7.6 28.9-0.4 40.5-41.9 40.5-109.7 0-151.5z"/>
      <path d="m264,16.5l-139.3,130.5h-93.3c-11.3,0-20.4,9.1-20.4,20.4v177.1c0,11.3 9.1,20.4 20.4,20.4h93.2l139.4,130.6c17.8,14.5 35.2-2.2 34.4-14.9v-449.2c1-13.2-17.3-29.1-34.4-14.9zm-153.3,307.6h-58.9v-136.3h58.8v136.3zm146.9,109.4l-106-99.3v-156.3l106-99.3v354.9z"/>
    </g>
  </g>
</svg>
